<?xml version="1.0" standalone="no"?>
<!DOCTYPE svg PUBLIC "-//W3C//DTD SVG 20010904//EN"
 "http://www.w3.org/TR/2001/REC-SVG-20010904/DTD/svg10.dtd">
<svg version="1.0" xmlns="http://www.w3.org/2000/svg"
 width="225.000000pt" height="225.000000pt" viewBox="0 0 225.000000 225.000000"
 preserveAspectRatio="xMidYMid meet">

<g transform="translate(0.000000,225.000000) scale(0.100000,-0.100000)"
fill="#000000" stroke="none">
<path d="M765 2091 c-413 -101 -658 -510 -560 -931 34 -142 142 -310 263 -406
75 -59 219 -128 309 -148 93 -21 244 -20 336 0 76 17 196 68 248 105 l31 22
297 -297 296 -296 63 62 62 63 -292 292 -292 292 43 60 c205 293 180 693 -60
956 -100 108 -252 197 -396 229 -94 21 -257 20 -348 -3z m350 -87 c186 -46
346 -178 436 -359 189 -380 -25 -841 -441 -950 -86 -23 -244 -23 -330 -1 -300
79 -510 349 -510 656 0 388 332 700 715 673 39 -2 97 -11 130 -19z"/>
</g>
</svg>
